<svg width="666" height="132" viewBox="0 0 666 132" fill="none" xmlns="http://www.w3.org/2000/svg">
<rect width="132" height="132" rx="24" fill="#433096"/>
<path d="M77.4924 31H85.9924V93H113.492V101H77.4924V31Z" fill="white"/>
<path d="M25.3073 79.8C26.9073 82.6 28.574 85.0667 30.3073 87.2C32.1073 89.3333 34.1073 91 36.3073 92.2C38.5073 93.4 41.0073 94 43.8073 94C47.5407 94 50.5407 92.9667 52.8073 90.9C55.074 88.8333 56.2073 86.2 56.2073 83C56.2073 79.8667 55.474 77.3667 54.0073 75.5C52.5407 73.6333 50.6073 72.1333 48.2073 71C45.874 69.8 43.374 68.7333 40.7073 67.8C38.974 67.2 37.0407 66.4333 34.9073 65.5C32.774 64.5 30.7407 63.2667 28.8073 61.8C26.874 60.2667 25.274 58.4 24.0073 56.2C22.8073 54 22.2073 51.3 22.2073 48.1C22.2073 44.6333 23.074 41.5333 24.8073 38.8C26.5407 36.0667 28.9407 33.9333 32.0073 32.4C35.074 30.8 38.574 30 42.5073 30C46.3073 30 49.6073 30.7333 52.4073 32.2C55.274 33.6 57.7073 35.4333 59.7073 37.7C61.7073 39.9 63.274 42.2333 64.4073 44.7L57.1073 48.9C56.2407 47.1667 55.1407 45.4667 53.8073 43.8C52.474 42.1333 50.8407 40.7667 48.9073 39.7C47.0407 38.6333 44.7407 38.1 42.0073 38.1C38.2073 38.1 35.4407 39.0333 33.7073 40.9C31.974 42.7 31.1073 44.7333 31.1073 47C31.1073 48.9333 31.6073 50.7333 32.6073 52.4C33.6073 54 35.274 55.5333 37.6073 57C40.0073 58.4 43.2407 59.8 47.3073 61.2C49.174 61.8667 51.1407 62.7333 53.2073 63.8C55.274 64.8667 57.174 66.2333 58.9073 67.9C60.7073 69.5 62.174 71.4667 63.3073 73.8C64.4407 76.0667 65.0073 78.8 65.0073 82C65.0073 85.0667 64.4073 87.8333 63.2073 90.3C62.074 92.7667 60.474 94.8667 58.4073 96.6C56.4073 98.3333 54.1073 99.6667 51.5073 100.6C48.974 101.533 46.3073 102 43.5073 102C39.7073 102 36.174 101.2 32.9073 99.6C29.7073 97.9333 26.874 95.7667 24.4073 93.1C22.0073 90.3667 20.0407 87.4667 18.5073 84.4L25.3073 79.8Z" fill="white"/>
<path d="M156.4 78.5C157.933 81.1667 159.567 83.5333 161.3 85.6C163.1 87.6 165.067 89.1667 167.2 90.3C169.333 91.3667 171.733 91.9 174.4 91.9C177.6 91.9 180.2 91.0333 182.2 89.3C184.2 87.5667 185.2 85.3333 185.2 82.6C185.2 80 184.567 77.9333 183.3 76.4C182.033 74.8 180.267 73.4667 178 72.4C175.8 71.2667 173.233 70.1667 170.3 69.1C168.567 68.5 166.633 67.7 164.5 66.7C162.367 65.6333 160.333 64.3333 158.4 62.8C156.467 61.2 154.867 59.2667 153.6 57C152.333 54.6667 151.7 51.8667 151.7 48.6C151.7 44.8667 152.667 41.6 154.6 38.8C156.533 35.9333 159.133 33.7333 162.4 32.2C165.733 30.6 169.5 29.8 173.7 29.8C177.833 29.8 181.433 30.5333 184.5 32C187.567 33.4667 190.133 35.3333 192.2 37.6C194.333 39.8667 196 42.2333 197.2 44.7L187.6 50.1C186.733 48.3667 185.633 46.7667 184.3 45.3C182.967 43.7667 181.4 42.5667 179.6 41.7C177.867 40.7667 175.833 40.3 173.5 40.3C170.233 40.3 167.833 41.0667 166.3 42.6C164.767 44.0667 164 45.8 164 47.8C164 49.6 164.533 51.2333 165.6 52.7C166.733 54.1 168.467 55.4333 170.8 56.7C173.133 57.9667 176.167 59.2667 179.9 60.6C181.967 61.3333 184.033 62.2667 186.1 63.4C188.233 64.5333 190.167 65.9667 191.9 67.7C193.633 69.3667 195 71.3333 196 73.6C197.067 75.8667 197.6 78.5333 197.6 81.6C197.6 84.8667 196.967 87.8 195.7 90.4C194.433 93 192.7 95.2 190.5 97C188.3 98.7333 185.8 100.067 183 101C180.267 102 177.4 102.5 174.4 102.5C170.267 102.5 166.433 101.7 162.9 100.1C159.433 98.4333 156.4 96.2333 153.8 93.5C151.2 90.7667 149.133 87.8 147.6 84.6L156.4 78.5ZM202.41 55H228.51V64.5H202.41V55ZM210.11 39H220.81V101H210.11V39ZM246.659 55V101H235.959V55H246.659ZM260.359 66.5C259.359 65.7 258.425 65.1 257.559 64.7C256.692 64.3 255.592 64.1 254.259 64.1C252.459 64.1 250.992 64.5667 249.859 65.5C248.725 66.4333 247.892 67.7333 247.359 69.4C246.892 71 246.659 72.9 246.659 75.1L243.059 73C243.059 69.3333 243.725 66.1 245.059 63.3C246.459 60.4333 248.225 58.1667 250.359 56.5C252.559 54.8333 254.825 54 257.159 54C258.825 54 260.392 54.2667 261.859 54.8C263.325 55.2667 264.559 56.1333 265.559 57.4L260.359 66.5ZM279.77 86.7C279.77 88.2333 280.137 89.5667 280.87 90.7C281.604 91.7667 282.604 92.5667 283.87 93.1C285.204 93.6333 286.704 93.9 288.37 93.9C290.504 93.9 292.437 93.4667 294.17 92.6C295.97 91.7333 297.404 90.4667 298.47 88.8C299.604 87.0667 300.17 85.0667 300.17 82.8L301.77 88.8C301.77 91.7333 300.904 94.2 299.17 96.2C297.504 98.1333 295.37 99.6 292.77 100.6C290.237 101.533 287.637 102 284.97 102C282.104 102 279.437 101.433 276.97 100.3C274.504 99.1667 272.537 97.5 271.07 95.3C269.604 93.1 268.87 90.4333 268.87 87.3C268.87 82.8333 270.437 79.3 273.57 76.7C276.704 74.0333 281.137 72.7 286.87 72.7C289.937 72.7 292.57 73.0333 294.77 73.7C297.037 74.3667 298.904 75.1667 300.37 76.1C301.837 76.9667 302.87 77.7667 303.47 78.5V84C301.404 82.5333 299.204 81.4667 296.87 80.8C294.537 80.1333 292.07 79.8 289.47 79.8C287.204 79.8 285.37 80.1 283.97 80.7C282.57 81.2333 281.504 82 280.77 83C280.104 84 279.77 85.2333 279.77 86.7ZM276.37 67L271.97 59.4C274.037 58.1333 276.704 56.9 279.97 55.7C283.304 54.5 287.104 53.9 291.37 53.9C295.17 53.9 298.504 54.4667 301.37 55.6C304.304 56.7333 306.604 58.3667 308.27 60.5C309.937 62.5667 310.77 65.1333 310.77 68.2V101H300.17V70.3C300.17 68.8333 299.904 67.6333 299.37 66.7C298.904 65.7667 298.237 65 297.37 64.4C296.504 63.8 295.47 63.3667 294.27 63.1C293.07 62.8333 291.77 62.7 290.37 62.7C288.237 62.7 286.204 62.9667 284.27 63.5C282.404 63.9667 280.77 64.5667 279.37 65.3C278.037 65.9667 277.037 66.5333 276.37 67ZM316.961 55H343.061V64.5H316.961V55ZM324.661 39H335.361V101H324.661V39ZM361.609 83C361.609 86.2667 362.309 88.8 363.709 90.6C365.109 92.4 367.243 93.3 370.109 93.3C372.176 93.3 373.976 92.9 375.509 92.1C377.043 91.2333 378.243 90.0333 379.109 88.5C379.976 86.9 380.409 85.0667 380.409 83V55H391.209V101H380.409V93.9C378.943 96.5667 377.043 98.6 374.709 100C372.443 101.333 369.709 102 366.509 102C361.376 102 357.409 100.4 354.609 97.2C351.876 94 350.509 89.6667 350.509 84.2V55H361.609V83ZM470.802 71.8V101H460.002V73C460.002 69.5333 459.368 66.9667 458.102 65.3C456.902 63.5667 454.968 62.7 452.302 62.7C450.502 62.7 448.902 63.1 447.502 63.9C446.168 64.7 445.102 65.8667 444.302 67.4C443.568 68.9333 443.202 70.8 443.202 73V101H432.402V73C432.402 69.5333 431.768 66.9667 430.502 65.3C429.302 63.5667 427.368 62.7 424.702 62.7C422.835 62.7 421.202 63.1 419.802 63.9C418.468 64.7 417.435 65.8667 416.702 67.4C415.968 68.9333 415.602 70.8 415.602 73V101H405.002V55H415.602V61.7C416.935 59.1667 418.668 57.2667 420.802 56C423.002 54.6667 425.568 54 428.502 54C431.902 54 434.702 54.7 436.902 56.1C439.168 57.5 440.802 59.5333 441.802 62.2C443.402 59.5333 445.402 57.5 447.802 56.1C450.268 54.7 453.068 54 456.202 54C459.468 54 462.168 54.7 464.302 56.1C466.502 57.4333 468.135 59.4333 469.202 62.1C470.268 64.7667 470.802 68 470.802 71.8ZM515.472 31H527.272V90.4H555.072V101H515.472V31ZM569.516 86.7C569.516 88.2333 569.883 89.5667 570.616 90.7C571.35 91.7667 572.35 92.5667 573.616 93.1C574.95 93.6333 576.45 93.9 578.116 93.9C580.25 93.9 582.183 93.4667 583.916 92.6C585.716 91.7333 587.15 90.4667 588.216 88.8C589.35 87.0667 589.916 85.0667 589.916 82.8L591.516 88.8C591.516 91.7333 590.65 94.2 588.916 96.2C587.25 98.1333 585.116 99.6 582.516 100.6C579.983 101.533 577.383 102 574.716 102C571.85 102 569.183 101.433 566.716 100.3C564.25 99.1667 562.283 97.5 560.816 95.3C559.35 93.1 558.616 90.4333 558.616 87.3C558.616 82.8333 560.183 79.3 563.316 76.7C566.45 74.0333 570.883 72.7 576.616 72.7C579.683 72.7 582.316 73.0333 584.516 73.7C586.783 74.3667 588.65 75.1667 590.116 76.1C591.583 76.9667 592.616 77.7667 593.216 78.5V84C591.15 82.5333 588.95 81.4667 586.616 80.8C584.283 80.1333 581.816 79.8 579.216 79.8C576.95 79.8 575.116 80.1 573.716 80.7C572.316 81.2333 571.25 82 570.516 83C569.85 84 569.516 85.2333 569.516 86.7ZM566.116 67L561.716 59.4C563.783 58.1333 566.45 56.9 569.716 55.7C573.05 54.5 576.85 53.9 581.116 53.9C584.916 53.9 588.25 54.4667 591.116 55.6C594.05 56.7333 596.35 58.3667 598.016 60.5C599.683 62.5667 600.516 65.1333 600.516 68.2V101H589.916V70.3C589.916 68.8333 589.65 67.6333 589.116 66.7C588.65 65.7667 587.983 65 587.116 64.4C586.25 63.8 585.216 63.3667 584.016 63.1C582.816 62.8333 581.516 62.7 580.116 62.7C577.983 62.7 575.95 62.9667 574.016 63.5C572.15 63.9667 570.516 64.5667 569.116 65.3C567.783 65.9667 566.783 66.5333 566.116 67ZM623.607 23V101H612.707V23H623.607ZM661.707 78C661.707 83 660.674 87.3 658.607 90.9C656.54 94.5 653.807 97.2667 650.407 99.2C647.007 101.067 643.307 102 639.307 102C635.507 102 632.107 101.033 629.107 99.1C626.174 97.1667 623.874 94.4 622.207 90.8C620.54 87.2 619.707 82.9333 619.707 78C619.707 73 620.54 68.7333 622.207 65.2C623.874 61.6 626.174 58.8333 629.107 56.9C632.107 54.9667 635.507 54 639.307 54C643.307 54 647.007 54.9667 650.407 56.9C653.807 58.7667 656.54 61.5 658.607 65.1C660.674 68.6333 661.707 72.9333 661.707 78ZM650.507 78C650.507 74.9333 649.874 72.3 648.607 70.1C647.34 67.9 645.64 66.2333 643.507 65.1C641.44 63.9667 639.14 63.4 636.607 63.4C634.54 63.4 632.507 63.9667 630.507 65.1C628.507 66.2333 626.84 67.9 625.507 70.1C624.24 72.2333 623.607 74.8667 623.607 78C623.607 81.1333 624.24 83.8 625.507 86C626.84 88.1333 628.507 89.7667 630.507 90.9C632.507 92.0333 634.54 92.6 636.607 92.6C639.14 92.6 641.44 92.0333 643.507 90.9C645.64 89.7667 647.34 88.1 648.607 85.9C649.874 83.7 650.507 81.0667 650.507 78Z" fill="black"/>
</svg>
